<svg width="439" height="304" viewBox="0 0 439 304" fill="none" xmlns="http://www.w3.org/2000/svg">
<g opacity="0.7">
<path fill-rule="evenodd" clip-rule="evenodd" d="M8.80048 8.41504H10.1995V17.2156H19V18.6146H10.1995V27.415H8.80048V18.6146H0V17.2156H8.80048V8.41504Z" fill="white"/>
<path fill-rule="evenodd" clip-rule="evenodd" d="M113.8 8.41504H115.2V17.2156H124V18.6146H115.2V27.415H113.8V18.6146H105V17.2156H113.8V8.41504Z" fill="white"/>
<path fill-rule="evenodd" clip-rule="evenodd" d="M218.8 8.41504H220.2V17.2156H229V18.6146H220.2V27.415H218.8V18.6146H210V17.2156H218.8V8.41504Z" fill="white"/>
<path fill-rule="evenodd" clip-rule="evenodd" d="M323.8 8.41504H325.2V17.2156H334V18.6146H325.2V27.415H323.8V18.6146H315V17.2156H323.8V8.41504Z" fill="white"/>
<path fill-rule="evenodd" clip-rule="evenodd" d="M428.8 8.41504H430.2V17.2156H439V18.6146H430.2V27.415H428.8V18.6146H420V17.2156H428.8V8.41504Z" fill="white"/>
<path fill-rule="evenodd" clip-rule="evenodd" d="M8.80048 77.415H10.1995V86.2156H19V87.6146H10.1995V96.415H8.80048V87.6146H0V86.2156H8.80048V77.415Z" fill="white"/>
<path fill-rule="evenodd" clip-rule="evenodd" d="M113.8 77.415H115.2V86.2156H124V87.6146H115.2V96.415H113.8V87.6146H105V86.2156H113.8V77.415Z" fill="white"/>
<path fill-rule="evenodd" clip-rule="evenodd" d="M218.8 77.415H220.2V86.2156H229V87.6146H220.2V96.415H218.8V87.6146H210V86.2156H218.8V77.415Z" fill="white"/>
<path fill-rule="evenodd" clip-rule="evenodd" d="M323.8 77.415H325.2V86.2156H334V87.6146H325.2V96.415H323.8V87.6146H315V86.2156H323.8V77.415Z" fill="white"/>
<path fill-rule="evenodd" clip-rule="evenodd" d="M428.8 77.415H430.2V86.2156H439V87.6146H430.2V96.415H428.8V87.6146H420V86.2156H428.8V77.415Z" fill="white"/>
<path fill-rule="evenodd" clip-rule="evenodd" d="M8.80048 146.415H10.1995V155.216H19V156.615H10.1995V165.415H8.80048V156.615H0V155.216H8.80048V146.415Z" fill="white"/>
<path fill-rule="evenodd" clip-rule="evenodd" d="M113.8 146.415H115.2V155.216H124V156.615H115.2V165.415H113.8V156.615H105V155.216H113.8V146.415Z" fill="white"/>
<path fill-rule="evenodd" clip-rule="evenodd" d="M218.8 146.415H220.2V155.216H229V156.615H220.2V165.415H218.8V156.615H210V155.216H218.8V146.415Z" fill="white"/>
<path fill-rule="evenodd" clip-rule="evenodd" d="M323.8 146.415H325.2V155.216H334V156.615H325.2V165.415H323.8V156.615H315V155.216H323.8V146.415Z" fill="white"/>
<path fill-rule="evenodd" clip-rule="evenodd" d="M428.8 146.415H430.2V155.216H439V156.615H430.2V165.415H428.8V156.615H420V155.216H428.8V146.415Z" fill="white"/>
<path fill-rule="evenodd" clip-rule="evenodd" d="M8.80048 215.415H10.1995V224.216H19V225.615H10.1995V234.415H8.80048V225.615H0V224.216H8.80048V215.415Z" fill="white"/>
<path fill-rule="evenodd" clip-rule="evenodd" d="M113.8 215.415H115.2V224.216H124V225.615H115.2V234.415H113.8V225.615H105V224.216H113.8V215.415Z" fill="white"/>
<path fill-rule="evenodd" clip-rule="evenodd" d="M218.8 215.415H220.2V224.216H229V225.615H220.2V234.415H218.8V225.615H210V224.216H218.8V215.415Z" fill="white"/>
<path fill-rule="evenodd" clip-rule="evenodd" d="M323.8 215.415H325.2V224.216H334V225.615H325.2V234.415H323.8V225.615H315V224.216H323.8V215.415Z" fill="white"/>
<path fill-rule="evenodd" clip-rule="evenodd" d="M428.8 215.415H430.2V224.216H439V225.615H430.2V234.415H428.8V225.615H420V224.216H428.8V215.415Z" fill="white"/>
<path fill-rule="evenodd" clip-rule="evenodd" d="M8.80048 284.415H10.1995V293.216H19V294.615H10.1995V303.415H8.80048V294.615H0V293.216H8.80048V284.415Z" fill="white"/>
<path fill-rule="evenodd" clip-rule="evenodd" d="M113.8 284.415H115.2V293.216H124V294.615H115.2V303.415H113.8V294.615H105V293.216H113.8V284.415Z" fill="white"/>
<path fill-rule="evenodd" clip-rule="evenodd" d="M218.8 284.415H220.2V293.216H229V294.615H220.2V303.415H218.8V294.615H210V293.216H218.8V284.415Z" fill="white"/>
<path fill-rule="evenodd" clip-rule="evenodd" d="M323.8 284.415H325.2V293.216H334V294.615H325.2V303.415H323.8V294.615H315V293.216H323.8V284.415Z" fill="white"/>
<path fill-rule="evenodd" clip-rule="evenodd" d="M428.8 284.415H430.2V293.216H439V294.615H430.2V303.415H428.8V294.615H420V293.216H428.8V284.415Z" fill="white"/>
</g>
</svg>
