<svg width="334" height="165" viewBox="0 0 334 165" fill="none" xmlns="http://www.w3.org/2000/svg">
<g opacity="0.7">
<path fill-rule="evenodd" clip-rule="evenodd" d="M8.80048 8H10.1995V16.8006H19V18.1996H10.1995V27H8.80048V18.1996H0V16.8006H8.80048V8Z" fill="white"/>
<path fill-rule="evenodd" clip-rule="evenodd" d="M113.8 8H115.2V16.8006H124V18.1996H115.2V27H113.8V18.1996H105V16.8006H113.8V8Z" fill="white"/>
<path fill-rule="evenodd" clip-rule="evenodd" d="M218.8 8H220.2V16.8006H229V18.1996H220.2V27H218.8V18.1996H210V16.8006H218.8V8Z" fill="white"/>
<path fill-rule="evenodd" clip-rule="evenodd" d="M323.8 8H325.2V16.8006H334V18.1996H325.2V27H323.8V18.1996H315V16.8006H323.8V8Z" fill="white"/>
<path fill-rule="evenodd" clip-rule="evenodd" d="M8.80048 77H10.1995V85.8006H19V87.1996H10.1995V96H8.80048V87.1996H0V85.8006H8.80048V77Z" fill="white"/>
<path fill-rule="evenodd" clip-rule="evenodd" d="M113.8 77H115.2V85.8006H124V87.1996H115.2V96H113.8V87.1996H105V85.8006H113.8V77Z" fill="white"/>
<path fill-rule="evenodd" clip-rule="evenodd" d="M218.8 77H220.2V85.8006H229V87.1996H220.2V96H218.8V87.1996H210V85.8006H218.8V77Z" fill="white"/>
<path fill-rule="evenodd" clip-rule="evenodd" d="M323.8 77H325.2V85.8006H334V87.1996H325.2V96H323.8V87.1996H315V85.8006H323.8V77Z" fill="white"/>
<path fill-rule="evenodd" clip-rule="evenodd" d="M8.80048 146H10.1995V154.801H19V156.2H10.1995V165H8.80048V156.2H0V154.801H8.80048V146Z" fill="white"/>
<path fill-rule="evenodd" clip-rule="evenodd" d="M113.8 146H115.2V154.801H124V156.2H115.2V165H113.8V156.2H105V154.801H113.8V146Z" fill="white"/>
<path fill-rule="evenodd" clip-rule="evenodd" d="M218.8 146H220.2V154.801H229V156.2H220.2V165H218.8V156.2H210V154.801H218.8V146Z" fill="white"/>
<path fill-rule="evenodd" clip-rule="evenodd" d="M323.8 146H325.2V154.801H334V156.2H325.2V165H323.8V156.2H315V154.801H323.8V146Z" fill="white"/>
</g>
</svg>
