<svg width="334" height="165" fill="none" xmlns="http://www.w3.org/2000/svg"><g opacity=".7" fill-rule="evenodd" clip-rule="evenodd" fill="#fff"><path d="M8.8 8h1.4v8.8H19v1.4h-8.8V27H8.8v-8.8H0v-1.4h8.8V8ZM113.8 8h1.4v8.8h8.8v1.4h-8.8V27h-1.4v-8.8H105v-1.4h8.8V8ZM218.8 8h1.4v8.8h8.8v1.4h-8.8V27h-1.4v-8.8H210v-1.4h8.8V8ZM323.8 8h1.4v8.8h8.8v1.4h-8.8V27h-1.4v-8.8H315v-1.4h8.8V8ZM8.8 77h1.4v8.8H19v1.4h-8.8V96H8.8v-8.8H0v-1.4h8.8V77ZM113.8 77h1.4v8.8h8.8v1.4h-8.8V96h-1.4v-8.8H105v-1.4h8.8V77ZM218.8 77h1.4v8.8h8.8v1.4h-8.8V96h-1.4v-8.8H210v-1.4h8.8V77ZM323.8 77h1.4v8.8h8.8v1.4h-8.8V96h-1.4v-8.8H315v-1.4h8.8V77ZM8.8 146h1.4v8.801H19v1.399h-8.8v8.8H8.8v-8.8H0v-1.399h8.8V146ZM113.8 146h1.4v8.801h8.8v1.399h-8.8v8.8h-1.4v-8.8H105v-1.399h8.8V146ZM218.8 146h1.4v8.801h8.8v1.399h-8.8v8.8h-1.4v-8.8H210v-1.399h8.8V146ZM323.8 146h1.4v8.801h8.8v1.399h-8.8v8.8h-1.4v-8.8H315v-1.399h8.8V146Z"/></g></svg>