<svg width="439" height="304" fill="none" xmlns="http://www.w3.org/2000/svg"><g opacity=".7" fill-rule="evenodd" clip-rule="evenodd" fill="#fff"><path d="M8.8 8.415h1.4v8.8H19v1.4h-8.8v8.8H8.8v-8.8H0v-1.4h8.8v-8.8ZM113.8 8.415h1.4v8.8h8.8v1.4h-8.8v8.8h-1.4v-8.8H105v-1.4h8.8v-8.8ZM218.8 8.415h1.4v8.8h8.8v1.4h-8.8v8.8h-1.4v-8.8H210v-1.4h8.8v-8.8ZM323.8 8.415h1.4v8.8h8.8v1.4h-8.8v8.8h-1.4v-8.8H315v-1.4h8.8v-8.8ZM428.8 8.415h1.4v8.8h8.8v1.4h-8.8v8.8h-1.4v-8.8H420v-1.4h8.8v-8.8ZM8.8 77.415h1.4v8.8H19v1.4h-8.8v8.8H8.8v-8.8H0v-1.4h8.8v-8.8ZM113.8 77.415h1.4v8.8h8.8v1.4h-8.8v8.8h-1.4v-8.8H105v-1.4h8.8v-8.8ZM218.8 77.415h1.4v8.8h8.8v1.4h-8.8v8.8h-1.4v-8.8H210v-1.4h8.8v-8.8ZM323.8 77.415h1.4v8.8h8.8v1.4h-8.8v8.8h-1.4v-8.8H315v-1.4h8.8v-8.8ZM428.8 77.415h1.4v8.8h8.8v1.4h-8.8v8.8h-1.4v-8.8H420v-1.4h8.8v-8.8ZM8.8 146.415h1.4v8.801H19v1.399h-8.8v8.8H8.8v-8.8H0v-1.399h8.8v-8.801ZM113.8 146.415h1.4v8.801h8.8v1.399h-8.8v8.8h-1.4v-8.8H105v-1.399h8.8v-8.801ZM218.8 146.415h1.4v8.801h8.8v1.399h-8.8v8.8h-1.4v-8.8H210v-1.399h8.8v-8.801ZM323.8 146.415h1.4v8.801h8.8v1.399h-8.8v8.8h-1.4v-8.8H315v-1.399h8.8v-8.801ZM428.8 146.415h1.4v8.801h8.8v1.399h-8.8v8.8h-1.4v-8.8H420v-1.399h8.8v-8.801ZM8.8 215.415h1.4v8.801H19v1.399h-8.8v8.8H8.8v-8.8H0v-1.399h8.8v-8.801ZM113.8 215.415h1.4v8.801h8.8v1.399h-8.8v8.8h-1.4v-8.8H105v-1.399h8.8v-8.801ZM218.8 215.415h1.4v8.801h8.8v1.399h-8.8v8.8h-1.4v-8.8H210v-1.399h8.8v-8.801ZM323.8 215.415h1.4v8.801h8.8v1.399h-8.8v8.8h-1.4v-8.8H315v-1.399h8.8v-8.801ZM428.8 215.415h1.4v8.801h8.8v1.399h-8.8v8.8h-1.4v-8.8H420v-1.399h8.8v-8.801ZM8.8 284.415h1.4v8.801H19v1.399h-8.8v8.8H8.8v-8.8H0v-1.399h8.8v-8.801ZM113.8 284.415h1.4v8.801h8.8v1.399h-8.8v8.8h-1.4v-8.8H105v-1.399h8.8v-8.801ZM218.8 284.415h1.4v8.801h8.8v1.399h-8.8v8.8h-1.4v-8.8H210v-1.399h8.8v-8.801ZM323.8 284.415h1.4v8.801h8.8v1.399h-8.8v8.8h-1.4v-8.8H315v-1.399h8.8v-8.801ZM428.8 284.415h1.4v8.801h8.8v1.399h-8.8v8.8h-1.4v-8.8H420v-1.399h8.8v-8.801Z"/></g></svg>